<?xml version="1.0" standalone="no"?>
<!DOCTYPE svg PUBLIC "-//W3C//DTD SVG 20010904//EN"
 "http://www.w3.org/TR/2001/REC-SVG-20010904/DTD/svg10.dtd">
<svg version="1.0" xmlns="http://www.w3.org/2000/svg"
 width="260.000000pt" height="260.000000pt" viewBox="0 0 260.000000 260.000000"
 preserveAspectRatio="xMidYMid meet">
<metadata>
Created by potrace 1.11, written by Peter Selinger 2001-2013
</metadata>
<g transform="translate(0.000000,260.000000) scale(0.100000,-0.100000)"
fill="#000000" stroke="none">
<path d="M460 2419 c-77 -13 -191 -69 -250 -125 -27 -26 -50 -49 -50 -53 0 -3
18 -19 40 -34 l40 -29 50 45 c200 180 516 125 631 -109 38 -76 50 -188 29
-273 -16 -69 -79 -163 -137 -205 -80 -59 -145 -80 -248 -79 -118 0 -184 25
-265 100 l-59 55 -41 -29 c-22 -15 -40 -31 -40 -34 0 -19 128 -124 183 -149
140 -66 324 -64 463 5 85 42 178 135 217 217 75 159 57 362 -45 509 -107 154
-300 223 -518 188z"/>
<path d="M1868 2411 c-82 -26 -135 -61 -199 -128 -129 -135 -168 -316 -109
-505 49 -158 183 -279 349 -314 181 -38 362 7 489 121 29 26 52 50 52 53 0 4
-19 20 -41 35 l-40 29 -45 -42 c-25 -23 -75 -56 -112 -73 -62 -30 -75 -32
-172 -32 -97 0 -110 2 -172 32 -85 40 -151 106 -191 191 -29 61 -32 76 -32
163 0 90 2 99 38 171 44 89 92 136 187 182 60 29 73 31 170 31 97 0 110 -2
172 -32 37 -17 87 -52 112 -76 l45 -45 40 30 41 30 -20 29 c-46 63 -139 123
-239 153 -77 23 -248 21 -323 -3z"/>
<path d="M1090 1871 c0 -14 12 -22 45 -30 84 -21 80 16 83 -666 3 -622 0 -680
-38 -755 -36 -70 -102 -110 -196 -118 -96 -7 -173 29 -209 99 -26 50 -21 56
43 51 73 -5 120 23 140 83 49 148 -122 252 -235 143 -47 -44 -63 -85 -63 -156
0 -97 24 -160 84 -217 71 -70 132 -89 269 -83 83 3 112 9 157 29 76 35 121 77
158 147 60 111 62 142 62 780 0 663 -3 635 83 661 34 10 47 20 47 33 0 17 -14
18 -215 18 -204 0 -215 -1 -215 -19z"/>
</g>
</svg>
